<svg width="50" height="50" viewBox="0 0 50 50" fill="none" xmlns="http://www.w3.org/2000/svg">
<rect width="50" height="50" rx="0" fill="#3DB3D1"/>
<path fill-rule="evenodd" clip-rule="evenodd" d="M24.1433 16.0015C23.3728 16.1865 22.7711 16.8048 22.591 17.5966C23.3616 17.4116 23.9632 16.7933 24.1433 16.0015ZM30.1565 21.255L26.9348 25.559L28.6261 26.8881L31.3213 22.7336C31.6534 22.2203 32.2136 21.9122 32.8134 21.9128H33.8492L33.1382 20.6344H31.383C30.9029 20.6358 30.4503 20.8649 30.1565 21.255ZM22.1231 32.9926H21.2937C21.1153 32.9926 20.9568 32.8752 20.9004 32.7012L20.071 30.1443C20.0256 30.0043 20.0539 29.8501 20.1458 29.7368L21.7366 27.7748L20.2389 27.4953C19.7248 28.2355 19.1013 28.8885 18.3909 29.4309V30.3451L19.9045 33.8449H22.5378V33.4187C22.5375 33.1835 22.352 32.9928 22.1231 32.9926ZM32.2786 19.5906C31.6663 19.3777 31.3064 18.7271 31.4417 18.0775H30.7204C30.1046 18.0757 29.5137 18.3272 29.0795 18.7759L24.7923 23.1816C25.1513 23.9036 25.6576 24.5376 26.2767 25.0402L29.4994 20.7356C29.9506 20.1363 30.6457 19.7845 31.383 19.7821H32.6643L32.6235 19.7087L32.2786 19.5906ZM35.4628 19.1662C35.4889 19.2063 35.5214 19.2417 35.559 19.2707L36.9637 20.3532L36.3564 21.9128H34.8044L33.265 19.1445C33.2144 19.0535 33.1329 18.9848 33.0361 18.9516L32.5409 18.782C32.3246 18.7069 32.2002 18.4741 32.2547 18.2462C32.2842 18.1247 32.3618 18.0213 32.4686 17.961C32.5755 17.9007 32.702 17.889 32.8177 17.9286L33.1885 18.0556C33.2308 18.0701 33.2751 18.0775 33.3197 18.0775H34.7565L35.4628 19.1662ZM28.4931 18.1734C29.0825 17.5643 29.8846 17.2229 30.7204 17.2252H32.0507L32.0586 17.2204L32.0696 17.2138C32.3791 17.0398 32.7451 17.0058 33.08 17.12L33.387 17.2252H34.3073L34.2365 17.0798C34.0271 16.6454 33.5955 16.3713 33.1237 16.3729H30.0483C29.322 16.3722 28.622 16.652 28.0872 17.1569L24.1995 20.8191C24.2152 21.3313 24.2998 21.8388 24.4509 22.3273L28.4931 18.1734ZM32.0114 23.2061C32.1899 22.9303 32.4911 22.7647 32.8134 22.7651H36.1059L35.9519 23.3982C35.9121 23.5628 35.7807 23.6873 35.6178 23.7148L34.0317 23.9869C33.6832 24.0465 33.3757 24.2554 33.1859 24.5615L30.7243 28.5366L29.2864 27.4067L32.0114 23.2061ZM27.985 27.457L25.8355 25.768C25.0687 25.164 24.447 24.3873 24.0181 23.4976C23.9839 23.4267 23.9534 23.3606 23.9254 23.2962L23.9159 23.2749L23.9127 23.2676C23.609 22.5703 23.429 21.8229 23.3811 21.0605H21.2937C21.2799 21.0605 21.2662 21.0598 21.2523 21.0584L19.3312 20.8607C18.274 20.7539 17.2203 21.0965 16.4154 21.8089C16.3822 21.8382 16.3496 21.8684 16.3173 21.8988V21.9128H16.3026C16.1979 22.0129 16.0988 22.119 16.0059 22.2307C15.4043 22.9523 15.0736 23.8711 15.0734 24.8212V27.8788C15.0734 27.9561 15.053 28.0318 15.0143 28.0981L13.8528 30.0875L14.5841 33.8449H17.1469V33.4187C17.1466 33.1835 16.9611 32.9928 16.7322 32.9926H15.9028C15.7051 32.9926 15.5349 32.8492 15.4962 32.65L15.0815 30.5193C15.039 30.3013 15.1668 30.0864 15.3749 30.0257L15.4023 30.0177C16.2381 29.7729 17.0275 29.3841 17.7367 28.8679C18.507 28.3097 19.1706 27.6105 19.6945 26.8053C19.7256 26.7449 19.7572 26.6846 19.7897 26.623L19.7898 26.6228C20.0557 26.1183 20.3307 25.5965 20.4676 24.4701L21.2905 24.5757C21.1644 25.6144 20.9173 26.2367 20.6824 26.7118L24.6487 27.4527H27.9287C27.9476 27.4528 27.9664 27.4542 27.985 27.457ZM30.8315 32.9926H31.6609C31.8898 32.9928 32.0753 33.1835 32.0756 33.4187V33.8449H29.5128L28.3354 27.7952C28.3297 27.7669 28.3213 27.7391 28.3102 27.7125L30.4168 29.3679V32.5664C30.4168 32.8018 30.6025 32.9926 30.8315 32.9926ZM26.3611 28.305L27.4393 33.8449H28.6669L27.5887 28.305H26.3611ZM15.4881 21.0605V21.9128H14.8661C13.8355 21.9128 13 21.0542 13 19.9951C13 18.936 13.8355 18.0775 14.8661 18.0775H20.5355C20.9836 18.0775 21.4228 17.9495 21.8041 17.7078L22.2395 18.4333C21.7273 18.7579 21.1373 18.9299 20.5355 18.9298H14.8661C14.2935 18.9298 13.8294 19.4068 13.8294 19.9951C13.8294 20.5835 14.2935 21.0605 14.8661 21.0605H15.4881Z" fill="white"/>
</svg>
